<svg width="931" height="190" viewBox="0 0 931 190" fill="none" xmlns="http://www.w3.org/2000/svg">
<path fill-rule="evenodd" clip-rule="evenodd" d="M897.662 176.353V79.0422C897.662 66.7425 893.121 56.9963 884.578 47.8687C876.036 39.4367 865.614 34.8733 853.783 34.8733C841.325 34.8733 830.191 40.056 819.777 49.8021C814.773 54.3335 810.786 59.8469 808.071 65.9882C805.357 72.1294 803.975 78.7627 804.015 85.4619V176.353H770.635V12.1309H804.015V22.4964C818.438 8.88247 834.818 2.38399 853.783 2.38399C874.704 2.38399 893.042 9.50096 908.092 24.4298C923.141 39.3587 930.345 57.5368 930.345 78.2677V176.276L897.662 176.353ZM475.359 79.0422C475.359 66.7425 470.818 56.9963 462.272 47.8687C453.73 39.4367 443.309 34.8733 430.849 34.8733C418.389 34.8733 408.592 39.4367 400.051 47.8687C395.832 51.9121 392.495 56.7627 390.245 62.1232C387.994 67.4837 386.878 73.241 386.964 79.0422V177.049H353.581V79.0422C353.581 66.7425 349.036 56.9963 340.494 47.8687C331.953 39.4367 321.529 34.8733 309.697 34.8733C297.237 34.8733 286.109 40.056 275.687 49.8021C270.681 54.327 266.698 59.8411 263.997 65.9853C261.297 72.1295 259.939 78.7658 260.013 85.4619V176.353H227.257V12.1309H260.64V22.4964C275.687 8.88015 292.064 2.38399 310.4 2.38399C335.243 2.38399 354.912 12.1309 370.585 31.624C377.673 22.4906 386.858 15.147 397.385 10.1974C407.934 4.97044 419.591 2.29227 431.396 2.38399C452.319 2.38399 470.655 9.50096 485.704 24.4298C500.754 39.3587 507.957 57.5368 507.957 78.2677V176.276H475.204V79.0422H475.359ZM147.246 167.3C132.2 180.299 113.866 186.796 92.9396 186.796C67.3933 186.796 45.1371 177.745 27.5062 159.567C9.16821 142.008 0 119.962 0 94.6675C0 69.3732 9.16821 47.2494 27.5062 29.7678C45.2162 11.5896 67.3932 2.53919 92.9404 2.53919C113.864 2.53919 132.201 9.03689 147.247 22.0323V12.1309H180.004V176.353H147.246V167.3ZM147.246 86.7746C145.289 71.2264 139.41 58.8503 129.615 49.1026C119.728 39.8318 106.582 34.7025 92.9396 34.793C76.5623 34.793 62.1424 40.6714 50.3887 52.3518C38.635 64.0322 32.6772 78.3426 32.6772 94.5116C32.5778 102.356 34.0966 110.138 37.1414 117.386C40.1861 124.633 44.6932 131.195 50.3887 136.671C62.2207 148.352 76.5623 154.231 92.9396 154.231C107.359 154.231 119.74 149.667 129.615 139.921C139.489 130.174 145.288 117.179 147.246 102.249V86.7746Z" fill="white"/>
<path fill-rule="evenodd" clip-rule="evenodd" d="M644.449 190C624.443 190.004 604.964 183.673 588.88 171.941C572.796 160.209 560.956 143.695 555.103 124.829C549.249 105.963 549.693 85.7432 556.367 67.1445C563.041 48.5458 575.593 32.5513 592.177 21.5154L570.358 0H638.48V67.1776L615.164 44.1859C602.578 50.8725 592.732 61.6557 587.303 74.6984C581.875 87.7411 581.2 102.236 585.394 115.715C589.587 129.193 598.39 140.82 610.302 148.616C622.214 156.412 636.499 159.894 650.722 158.468C664.945 157.043 678.228 150.798 688.306 140.799C698.384 130.799 704.635 117.663 705.993 103.628C707.351 89.5934 703.733 75.5284 695.755 63.8293C687.777 52.1303 675.932 43.5209 662.239 39.468V7.39958C685.047 11.7638 705.387 24.3506 719.293 42.7044C733.199 61.0581 739.672 83.8624 737.45 106.668C735.229 129.474 724.471 150.646 707.276 166.053C690.081 181.46 667.682 189.998 644.449 190ZM644.466 119.595C640.112 119.595 635.857 118.321 632.237 115.936C628.618 113.551 625.796 110.161 624.131 106.195C622.465 102.228 622.029 97.864 622.878 93.6535C623.728 89.443 625.824 85.5754 628.902 82.5398C631.981 79.5043 635.903 77.437 640.173 76.5996C644.442 75.7621 648.868 76.192 652.89 77.8349C656.912 79.4778 660.349 82.2599 662.768 85.8295C665.187 89.399 666.477 93.5956 666.477 97.8886C666.477 100.739 665.908 103.562 664.802 106.195C663.696 108.829 662.074 111.222 660.03 113.237C657.986 115.253 655.56 116.852 652.889 117.943C650.219 119.033 647.356 119.595 644.466 119.595Z" fill="white"/>
</svg>
