<svg id="Layer_1" data-name="Layer 1" xmlns="http://www.w3.org/2000/svg" viewBox="0 0 120 120"><defs><style>.cls-1{fill:#fff;}</style></defs><title>deposit-w</title><path class="cls-1" d="M59.13,42.23a2.92,2.92,0,0,0-4.09,0L12.59,84.69a2.88,2.88,0,0,0,0,4.09l1,1a2.92,2.92,0,0,0,4.08,0L57.12,50.4,72.57,65.84a2.92,2.92,0,0,0,4.07,0L98.89,43.59l1.77,1.77.31.29,4.49,4.49c.25.25.63.63.8.63a.65.65,0,0,0,.33-.1,1.55,1.55,0,0,0,.37-.27,2,2,0,0,0,.44-1.43l.86-18.22a1.71,1.71,0,0,0-.19-1.1,1.55,1.55,0,0,0-1-.26h-.3l-18.63.87c-.66,0-1,.06-1.21.25a1.11,1.11,0,0,0-.19.3c-.14.3-.19.4.49,1.07l1.57,1.57c1.09,1.11,2.17,2.19,3.26,3.26l1.8,1.77L74.58,57.68Z"/></svg>
