<svg id="Layer_1" data-name="Layer 1" xmlns="http://www.w3.org/2000/svg" viewBox="0 0 120 120"><defs><style>.cls-1{fill:#fff;}</style></defs><title>withdraw-w</title><path class="cls-1" d="M60.87,77.77a2.92,2.92,0,0,0,4.09,0l42.45-42.45a2.88,2.88,0,0,0,0-4.09l-1-1a2.92,2.92,0,0,0-4.08,0L62.88,69.6,47.43,54.16a2.92,2.92,0,0,0-4.07,0L21.11,76.41l-1.77-1.77L19,74.35l-4.49-4.49c-.25-.25-.62-.62-.8-.62a.65.65,0,0,0-.33.1,1.55,1.55,0,0,0-.37.27A2,2,0,0,0,12.61,71l-.86,18.22a1.71,1.71,0,0,0,.19,1.1,1.55,1.55,0,0,0,1,.26h.3l18.63-.87c.66,0,1-.06,1.21-.25a1.11,1.11,0,0,0,.19-.3c.14-.3.19-.4-.49-1.07l-1.57-1.57C30.18,85.45,29.1,84.38,28,83.3l-1.8-1.77L45.42,62.32Z"/></svg>
