<svg id="Layer_1" data-name="Layer 1" xmlns="http://www.w3.org/2000/svg" viewBox="0 0 120 120"><defs><style>.cls-1{fill:#fff;}</style></defs><title>icons</title><path class="cls-1" d="M89.59,70.72a3.9,3.9,0,0,0-.21-.4l.1-.1-.73-.68h0L88,68.85l-.1.1a3.6,3.6,0,0,0-.41-.18,3.44,3.44,0,0,0-1.44-.21,3.6,3.6,0,0,0-2.51,1.23l-20,21.53V19.5a3.62,3.62,0,0,0-1.06-2.57,3.69,3.69,0,0,0-5.12,0,3.62,3.62,0,0,0-1.06,2.56V91.3L36.26,69.71a3.59,3.59,0,0,0-2.49-1,3.66,3.66,0,0,0-2.52,1,3.62,3.62,0,0,0-1.14,2.45A3.66,3.66,0,0,0,31,74.7L57.28,103a3.63,3.63,0,0,0,2.64,1.15h0A3.61,3.61,0,0,0,62.58,103L88.82,74.77a3.64,3.64,0,0,0,.77-4Z"/></svg>