<svg id="Layer_1" data-name="Layer 1" xmlns="http://www.w3.org/2000/svg" viewBox="0 0 120 120"><defs><style>.cls-1{fill:#fff;}</style></defs><title>icons</title><path class="cls-1" d="M87.41,42.57a3.2,3.2,0,0,0,.21-.35l0-.06,0-.1a2.91,2.91,0,0,0,0-2.31s0-.08,0-.12l0-.06a3.19,3.19,0,0,0-.18-.3c0-.08-.09-.16-.14-.23s-.12-.14-.19-.21a3.19,3.19,0,0,0-.22-.25l-.06,0,0,0L61.89,16.68a3.37,3.37,0,0,0-1.1-.64,3.48,3.48,0,0,0-2.5.08,3.34,3.34,0,0,0-1.06.71,3.21,3.21,0,0,0-.71,1.07,3.13,3.13,0,0,0,.09,2.53,3.26,3.26,0,0,0,.78,1L75.92,37.68H54.43a29.53,29.53,0,0,0-6,.7,22.85,22.85,0,0,0-10.68,5.21l-.14.13h0c-3.66,3.43-5.51,8-5.51,13.69v43.53a3.18,3.18,0,0,0,1,2.31,3.44,3.44,0,0,0,4.66,0,3.19,3.19,0,0,0,1-2.31V57.41c0-3.87,1.2-6.94,3.56-9.12A16.55,16.55,0,0,1,50,44.64a22.6,22.6,0,0,1,4.4-.52H75.92L57.39,60.36a3.14,3.14,0,0,0-.24,4.54l.08.09a3.35,3.35,0,0,0,1.11.73,3.45,3.45,0,0,0,1.3.25h0a3.43,3.43,0,0,0,2.25-.83L86.81,43.29l0-.05,0,0c.05,0,.09-.11.14-.16a3.22,3.22,0,0,0,.27-.31C87.34,42.69,87.37,42.63,87.41,42.57Z"/></svg>