<svg width="15" height="16" viewBox="0 0 15 16" fill="none" xmlns="http://www.w3.org/2000/svg">
<path fill-rule="evenodd" clip-rule="evenodd" fill="white" d="M14.8534 15.6589C14.8018 15.7337 14.738 15.7992 14.6646 15.8528C14.5396 15.944 14.3901 15.9953 14.2356 16H5.47892C5.32437 15.9953 5.17485 15.9439 5.0499 15.8528C4.94541 15.7761 4.86051 15.6757 4.80213 15.56C4.74376 15.4442 4.71356 15.3162 4.714 15.1865V10.3188H5.96397V14.2711C5.96397 14.5529 6.18273 14.7723 6.44174 14.7723H13.2736C13.5321 14.7723 13.7514 14.5528 13.7514 14.2711V1.70247C13.7514 1.42015 13.5321 1.20107 13.2736 1.20107H6.44174C6.18322 1.20107 5.96397 1.42015 5.96397 1.70247V5.62742H4.714V0.81384C4.714 0.369084 5.06302 0 5.50344 0H14.211C14.3376 0.000260402 14.4624 0.0314224 14.5743 0.09079C14.6863 0.150158 14.7821 0.235943 14.8535 0.340724C14.9495 0.479715 15.0007 0.644861 15 0.813866V15.1865C15.0003 15.3552 14.9491 15.52 14.8534 15.6589ZM7.78237 6.55149L7.01046 5.73097C6.92711 5.64238 6.87247 5.53063 6.8537 5.41038C6.83843 5.31589 6.84552 5.21912 6.87441 5.12787C6.9033 5.03662 6.95317 4.95343 7.02002 4.885C7.12518 4.77736 7.26834 4.71536 7.4187 4.71234C7.42245 4.71234 7.4262 4.71234 7.42995 4.71234C7.50868 4.71239 7.58657 4.72865 7.65877 4.76009C7.73097 4.79153 7.79595 4.8375 7.84967 4.89513L10.1246 7.31367L10.7354 7.96266L10.6283 8.06342L10.7354 7.96253L10.8331 8.06602L10.7335 8.16716L10.1073 8.80087L10.107 8.80062L7.8134 11.1269C7.75911 11.1823 7.69417 11.2262 7.62248 11.2558C7.5508 11.2854 7.47386 11.3002 7.39632 11.2992C7.31878 11.2982 7.24224 11.2815 7.17133 11.2501C7.10042 11.2186 7.0366 11.1732 6.98374 11.1163C6.87644 11.0012 6.81761 10.8491 6.81949 10.6916C6.82136 10.5341 6.8838 10.3834 6.99381 10.2709L8.65427 8.5875H0.584041C0.256121 8.58758 6.38259e-06 8.31293 6.38259e-06 7.98654C-0.000485391 7.87941 0.0274488 7.77407 0.0809527 7.68129C0.134457 7.58851 0.211611 7.51162 0.304527 7.45848C0.389884 7.41051 0.48616 7.38542 0.584041 7.38562H8.56685L7.78237 6.55149ZM7.4118 4.86039C7.41782 4.86012 7.42384 4.8595 7.42987 4.8595C7.42384 4.8595 7.41782 4.86012 7.4118 4.86039ZM7.58494 4.88886C7.58713 4.88971 7.58922 4.89092 7.59139 4.8918C7.58917 4.89092 7.58708 4.88971 7.58489 4.88886H7.58494ZM7.40082 11.1521C7.40165 11.1521 7.40245 11.1521 7.40328 11.1521C7.4024 11.1523 7.40159 11.1521 7.40076 11.1521H7.40082Z"/>
</svg>
