<svg width="17" height="21" viewBox="0 0 17 21" fill="none" xmlns="http://www.w3.org/2000/svg">
  <path d="M3.85396 10.022C1.73168 10.022 0 6.44469 0 4.12015C0 1.85128 1.73168 0 3.85396 0C5.97623 0 7.70791 1.85128 7.70791 4.12015C7.70791 6.44469 5.98925 10.022 3.85396 10.022ZM3.85396 0.695971C2.09624 0.695971 0.651006 2.22711 0.651006 4.12015C0.651006 6.08278 2.14832 9.32601 3.85396 9.32601C5.55959 9.32601 7.0569 6.08278 7.0569 4.12015C7.0569 2.22711 5.62469 0.695971 3.85396 0.695971Z" transform="translate(4.64526 1)" fill="#fff" stroke="#fff" stroke-width="1.2"/>
  <path d="M14.6867 7.85055C14.5044 7.85055 14.3612 7.69744 14.3612 7.50256C14.3612 3.75824 11.2884 0.695971 7.51261 0.695971C3.72375 0.70989 0.651006 3.75824 0.651006 7.50256C0.651006 7.69744 0.507785 7.85055 0.325503 7.85055C0.143221 7.85055 0 7.69744 0 7.50256C0 3.3685 3.37221 0 7.49959 0C11.64 0 14.9992 3.3685 14.9992 7.50256C15.0122 7.69744 14.869 7.85055 14.6867 7.85055Z" transform="translate(1 12.1495)" fill="#fff" stroke="#fff" stroke-width="1.2"/>
</svg>
