<svg width="13" height="12" viewBox="0 0 13 12" fill="none" xmlns="http://www.w3.org/2000/svg">  <path d="M12.5 9.18507C12.5003 8.74336 12.3755 8.31571 12.1402 7.94499L8.50591 1.65789L8.5059 1.65788C8.09277 0.943244 7.3244 0.5 6.4985 0.5C5.6728 0.5 4.90469 0.943039 4.49138 1.65756L4.4913 1.65768L0.809687 8.02642L0.80966 8.02647C0.39665 8.7411 0.396906 9.62795 0.809671 10.3421L0.809798 10.3423C1.22303 11.0564 1.99102 11.5 2.81709 11.5H10.1818H10.1818H10.1818H10.1818H10.1819H10.1819H10.1819H10.182H10.182H10.182H10.182H10.1821H10.1821H10.1821H10.1822H10.1822H10.1822H10.1823H10.1823H10.1823H10.1823H10.1824H10.1824H10.1824H10.1825H10.1825H10.1825H10.1825H10.1826H10.1826H10.1826H10.1827H10.1827H10.1827H10.1827H10.1828H10.1828H10.1828H10.1829H10.1829H10.1829H10.1829H10.183H10.183H10.183H10.1831H10.1831H10.1831H10.1832H10.1832H10.1832H10.1832H10.1833H10.1833H10.1833H10.1834H10.1834H10.1834H10.1834H10.1835H10.1835H10.1835H10.1836H10.1836H10.1836H10.1837H10.1837H10.1837H10.1837H10.1838H10.1838H10.1838H10.1839H10.1839H10.1839H10.1839H10.184H10.184H10.184H10.1841H10.1841H10.1841H10.1842H10.1842H10.1842H10.1842H10.1843H10.1843H10.1843H10.1844H10.1844H10.1844H10.1844H10.1845H10.1845H10.1845H10.1846H10.1846H10.1846H10.1847H10.1847H10.1847H10.1847H10.1848H10.1848H10.1848H10.1849H10.1849H10.1849H10.185H10.185H10.185H10.185H10.1851H10.1851H10.1851H10.1852H10.1852H10.1852H10.1853H10.1853H10.1853H10.1853H10.1854H10.1854H10.1854H10.1855H10.1855H10.1855H10.1856H10.1856H10.1856H10.1856H10.1857H10.1857H10.1857H10.1858H10.1858H10.1858H10.1859H10.1859H10.1859H10.1859H10.186H10.186H10.186H10.1861H10.1861H10.1861H10.1862H10.1862H10.1862H10.1862H10.1863H10.1863H10.1863H10.1864H10.1864H10.1864H10.1865H10.1865H10.1865H10.1865H10.1866H10.1866H10.1866H10.1867H10.1867H10.1867H10.1868H10.1868H10.1868H10.1868H10.1869H10.1869H10.1869H10.187H10.187H10.187H10.1871H10.1871H10.1871H10.1871H10.1872H10.1872H10.1872H10.1873H10.1873H10.1873H10.1874H10.1874H10.1874H10.1874H10.1875H10.1875H10.1875H10.1876H10.1876H10.1876H10.1877H10.1877H10.1877H10.1878H10.1878H10.1878H10.1878H10.1879H10.1879H10.1879H10.188H10.188H10.188H10.1881H10.1881H10.1881H10.1881H10.1882H10.1882H10.1882H10.1883H10.1883H10.1883H10.1884H10.1884H10.1884H10.1885H10.1885H10.1885H10.1885H10.1886H10.1886H10.1886H10.1887H10.1887H10.1887H10.1888H10.1888H10.1888H10.1888H10.1889H10.1889H10.1889H10.189H10.189H10.189H10.1891H10.1891H10.1891H10.1892H10.1892H10.1892H10.1892H10.1893H10.1893H10.1893H10.1894H10.1894H10.1894H10.1895H10.1895H10.1895H10.1896H10.1896H10.1896H10.1896H10.1897H10.1897H10.1897H10.1898H10.1898H10.1898H10.1899H10.1899H10.1899H10.19H10.19H10.19H10.19H10.1901H10.1901H10.1901H10.1902H10.1902H10.1902H10.1903H10.1903H10.1903H10.1904H10.1904H10.1904H10.1904H10.1905H10.1905H10.1905H10.1906H10.1906H10.1906H10.1907H10.1907H10.1907H10.1908H10.1908H10.1908H10.1908H10.1909H10.1909H10.1909H10.191H10.191H10.191H10.1911H10.1911H10.1911H10.1912H10.1912H10.1912H10.1912H10.1913H10.1913H10.1913H10.1914H10.1914H10.1914H10.1915H10.1915H10.1915H10.1916H10.1916H10.1916H10.1916H10.1917H10.1917H10.1917H10.1918H10.1918H10.1918H10.1919H10.1919H10.1919H10.192H10.192H10.192H10.1921H10.1921H10.1921H10.1921H10.1922H10.1922H10.1922H10.1923H10.1923H10.1923H10.1924H10.1924H10.1924H10.1925H10.1925H10.1925H10.1925H10.1926H10.1926H10.1926H10.1927H10.1927H10.1927H10.1928H10.1928H10.1928H10.1929H10.1929H10.1929H10.193H10.193H10.193H10.193H10.1931H10.1931H10.1931H10.1932H10.1932H10.1932H10.1933H10.1933H10.1933H10.1934H10.1934H10.1934H10.1934H10.1935H10.1935H10.1935H10.1936H10.1936H10.1936H10.1937H10.1937H10.1937H10.1938H10.1938H10.1938H10.1939H10.1939H10.1939H10.1939H10.194H10.194H10.194H10.1941H10.1941H10.1941H10.1942H10.1942H10.1942H10.1943H10.1943H10.1943H10.1944H10.1944H10.1944H10.1944H10.1945H10.1945H10.1945H10.1946H10.1946H10.1946H10.1947H10.1947H10.1947H10.1948H10.1948H10.1948H10.1949H10.1949H10.1949H10.1949H10.195H10.195H10.195H10.1951H10.1951H10.1951H10.1952H10.1952H10.1952H10.1953H10.1953H10.1953H10.1954H10.1954H10.1954H10.1954H10.1955H10.1955H10.1955H10.1956H10.1956H10.1956H10.1957H10.1957H10.1957H10.1958H10.1958H10.1958H10.1959H10.1959H10.1959H10.1959H10.196H10.196H10.196H10.1961H10.1961H10.1961H10.1962H10.1962H10.1962H10.1963H10.1963H10.1963H10.1964H10.1964H10.1964H10.1964H10.1965H10.1965H10.1965H10.1966H10.1966H10.1966H10.1967H10.1967H10.1967H10.1968H10.1968H10.1968H10.1969H10.1969H10.1969H10.1969H10.197H10.197H10.197H10.1971H10.1971H10.1971H10.1972H10.1972H10.1972H10.1973H10.1973H10.1973H10.1974V11.5L10.2014 11.5C11.4707 11.4898 12.4998 10.4558 12.5 9.18507ZM12.5 9.18507L12 9.18478H12.5C12.5 9.18488 12.5 9.18498 12.5 9.18507ZM6.85407 3.9393L6.85403 3.93929L6.85314 3.94616L6.49994 6.68994L6.14673 3.94616L6.14675 3.94616L6.14607 3.94126C6.13956 3.89432 6.15238 3.81879 6.19191 3.76582C6.2086 3.74346 6.23267 3.72101 6.27239 3.70236C6.31317 3.68323 6.38398 3.66191 6.49994 3.66191C6.61621 3.66191 6.68686 3.6835 6.72737 3.70272C6.76689 3.72148 6.7911 3.74419 6.80805 3.76714C6.84864 3.82212 6.85994 3.89822 6.85407 3.9393ZM6.76939 9.37119L6.76937 9.37116L6.76517 9.3754C6.69738 9.44388 6.59849 9.48553 6.49994 9.48553C6.40142 9.48553 6.30159 9.44413 6.23107 9.37361L6.23085 9.37339C6.16213 9.30475 6.12087 9.20618 6.12087 9.10548C6.12087 9.00715 6.1619 8.9082 6.23063 8.83965L6.23085 8.83942C6.29934 8.77102 6.39841 8.72953 6.49994 8.72953C6.60166 8.72953 6.69957 8.77122 6.7654 8.83764L6.76538 8.83766L6.76917 8.8414C6.83833 8.90971 6.879 9.00776 6.879 9.10548C6.879 9.20608 6.83791 9.3036 6.76939 9.37119Z" fill="#FF0000" stroke="#EEF9F7"/></svg>