<svg width="51" height="52" viewBox="0 0 51 52" fill="none" xmlns="http://www.w3.org/2000/svg">
<path fill-rule="evenodd" clip-rule="evenodd" d="M25.5006 52C20.0404 52.001 14.7241 50.2685 10.3343 47.0576C5.9445 43.8467 2.71304 39.327 1.11557 34.1638C-0.481891 29.0005 -0.360953 23.4665 1.46058 18.3764C3.28212 13.2862 6.70802 8.90879 11.234 5.88842L5.2792 0H23.8713V18.3855L17.5079 12.093C14.0728 13.923 11.3855 16.8742 9.90396 20.4438C8.42241 24.0133 8.23823 27.9805 9.3828 31.6693C10.5274 35.3581 12.9299 38.5403 16.181 40.6739C19.4321 42.8075 23.3307 43.7604 27.2126 43.3703C31.0946 42.9801 34.7196 41.2711 37.4702 38.5344C40.2208 35.7976 41.9268 32.2025 42.2975 28.3614C42.6682 24.5203 41.6807 20.6709 39.5033 17.4691C37.3258 14.2672 34.0931 11.911 30.3559 10.8018V2.02515C36.5807 3.21957 42.1322 6.66436 45.9274 11.6875C49.7227 16.7106 51.4895 22.9518 50.8831 29.1935C50.2766 35.4351 47.3406 41.2294 42.6476 45.4461C37.9547 49.6628 31.8414 51.9994 25.5006 52ZM25.5051 32.7312C24.3169 32.7312 23.1555 32.3827 22.1676 31.7299C21.1797 31.0771 20.4098 30.1493 19.9551 29.0638C19.5005 27.9783 19.3815 26.7838 19.6134 25.6315C19.8452 24.4791 20.4173 23.4206 21.2575 22.5899C22.0977 21.7591 23.1681 21.1933 24.3334 20.9641C25.4987 20.7349 26.7066 20.8525 27.8043 21.3022C28.902 21.7518 29.8402 22.5132 30.5003 23.4902C31.1604 24.4671 31.5127 25.6156 31.5127 26.7906C31.5127 27.5707 31.3573 28.3432 31.0554 29.064C30.7535 29.7848 30.3109 30.4397 29.7531 30.9913C29.1952 31.5429 28.5329 31.9805 27.8041 32.279C27.0752 32.5776 26.294 32.7312 25.5051 32.7312Z" fill="black"/>
</svg>
