<svg width="224" height="225" viewBox="0 0 224 225" fill="none" xmlns="http://www.w3.org/2000/svg">
<path d="M112 225C173.856 225 224 174.632 224 112.5C224 50.368 173.856 0 112 0C50.1441 0 0 50.368 0 112.5C0 174.632 50.1441 225 112 225Z" fill=""/>
<path d="M84.8108 100.829L111.999 73.642L139.201 100.843L155.021 85.0233L111.999 42L68.9915 85.0093L84.8108 100.829ZM42 111.998L57.8204 96.1772L73.6398 111.997L57.8195 127.817L42 111.998ZM84.8108 123.17L111.999 150.358L139.2 123.157L155.028 138.969L155.021 138.977L111.999 182L68.9901 138.992L68.9677 138.969L84.8108 123.17ZM150.36 112.006L166.181 96.1859L182 112.005L166.18 127.826L150.36 112.006Z" fill="#252525"/>
<path d="M128.052 111.989H128.059L112.006 95.9355L100.143 107.799H100.142L98.7789 109.163L95.9677 111.975L95.9453 111.996L95.9677 112.019L112.006 128.058L128.059 112.005L128.067 111.996L128.052 111.989" fill="#252525"/>
</svg>
