<svg width="224" height="225" viewBox="0 0 224 225" fill="none" xmlns="http://www.w3.org/2000/svg">
<path d="M112 225C173.856 225 224 174.632 224 112.5C224 50.368 173.856 0 112 0C50.1441 0 0 50.368 0 112.5C0 174.632 50.1441 225 112 225Z" fill=""/>
<path d="M115.486 28.125V90.4922L167.965 114.047L115.486 28.125Z" fill="#343434"/>
<path d="M115.486 28.125L63 114.047L115.486 90.4922V28.125Z" fill="#8C8C8C"/>
<path d="M115.486 154.464V196.841L168 123.864L115.486 154.464Z" fill="#3C3C3B"/>
<path d="M115.486 196.841V154.457L63 123.864L115.486 196.841Z" fill="#8C8C8C"/>
<path d="M115.486 144.654L167.965 114.047L115.486 90.5068V144.654Z" fill="#141414"/>
<path d="M63 114.047L115.486 144.654V90.5068L63 114.047Z" fill="#393939"/>
</svg>
