<svg id="Layer_1" data-name="Layer 1" xmlns="http://www.w3.org/2000/svg" viewBox="0 0 120 120"><defs><style>.cls-1{fill:#0065E0;stroke-miterlimit:10;stroke-width:3px;}</style></defs><title>icons</title><path id="_Compound_Path_" data-name="&lt;Compound Path&gt;" class="cls-1" d="M48.91,54.73H21.63A5.62,5.62,0,0,1,16,49.13V27.6A5.62,5.62,0,0,1,21.63,22H48.91a5.62,5.62,0,0,1,5.63,5.6V49.13A5.62,5.62,0,0,1,48.91,54.73ZM24,46.73H46.54V30H24Zm74.37,8H71.09a5.62,5.62,0,0,1-5.63-5.6V27.6A5.62,5.62,0,0,1,71.09,22H98.37A5.62,5.62,0,0,1,104,27.6V49.13A5.62,5.62,0,0,1,98.37,54.73Zm-24.91-8H96V30H73.46ZM48.91,98H21.63A5.62,5.62,0,0,1,16,92.4V70.87a5.62,5.62,0,0,1,5.63-5.6H48.91a5.62,5.62,0,0,1,5.63,5.6V92.4A5.62,5.62,0,0,1,48.91,98ZM24,90H46.54V73.27H24Zm74.37,8H71.09a5.62,5.62,0,0,1-5.63-5.6V70.87a5.62,5.62,0,0,1,5.63-5.6H98.37a5.62,5.62,0,0,1,5.63,5.6V92.4A5.62,5.62,0,0,1,98.37,98ZM73.46,90H96V73.27H73.46Z"/></svg>
