<svg width="45" height="45" viewBox="0 0 45 45" fill="none" xmlns="http://www.w3.org/2000/svg">
  <path d="M10.1256 10.1256C16.954 3.29729 28.0213 3.29146 34.8568 10.1081L27.5 17.5L45 17.4167L44.9171 0L38.384 6.56421C29.5951 -2.19669 15.3683 -2.18806 6.5901 6.5901C2.19721 10.983 2.6077e-05 16.7456 0 22.4999L5 22.4999C5.00002 18.0174 6.70807 13.5432 10.1256 10.1256Z" fill="#CFCFCF"/>
  <path d="M34.8744 34.8744C38.292 31.4568 40 26.9825 40 22.4999L45 22.4999C45 28.2543 42.8028 34.017 38.4099 38.4099C29.6317 47.1881 15.4049 47.1967 6.61603 38.4358L0.0829184 45L0 27.5833L17.5 27.5L10.1432 34.8919C16.9787 41.7085 28.046 41.7027 34.8744 34.8744Z" fill="#CFCFCF"/>
</svg>
