<svg width="52" height="51" viewBox="0 0 52 51" fill="none" xmlns="http://www.w3.org/2000/svg">
<circle cx="25.9592" cy="25.3918" r="25.2582" fill="#fff" stroke="#fff" stroke-width="0.267282"/>
<path d="M17.2165 27.1988C16.9482 27.4667 16.5133 27.4667 16.2451 27.1988L13.3308 24.2883C13.0626 24.0204 13.0626 23.586 13.3308 23.3181C13.5991 23.0502 14.034 23.0502 14.3022 23.3181L15.6717 24.6858C15.8071 22.2471 16.8078 19.8456 18.6736 17.9821C22.6973 13.9634 29.2211 13.9634 33.2448 17.9821C33.5977 18.3345 33.9199 18.7065 34.2112 19.0946C34.4388 19.3978 34.3772 19.8278 34.0737 20.055C33.7702 20.2823 33.3396 20.2208 33.1121 19.9177C32.8596 19.5814 32.5801 19.2586 32.2734 18.9523C28.7862 15.4694 23.1322 15.4694 19.645 18.9523C17.8781 20.7169 17.0066 23.0358 17.0301 25.3496C17.0304 25.384 17.0282 25.4179 17.0236 25.4511L19.1593 23.3181C19.4276 23.0502 19.8625 23.0502 20.1307 23.3181C20.399 23.586 20.399 24.0204 20.1307 24.2883L17.2165 27.1988Z" fill="#252525"/>
<path d="M34.7019 23.3181C34.9702 23.0502 35.4051 23.0502 35.6733 23.3181L38.5876 26.2286C38.8558 26.4966 38.8558 26.9309 38.5876 27.1988C38.3193 27.4667 37.8844 27.4667 37.6162 27.1988L36.2467 25.8311C36.1113 28.2698 35.1106 30.6714 33.2448 32.5348C29.2211 36.5535 22.6973 36.5535 18.6736 32.5348C18.3207 32.1824 17.9985 31.8104 17.7072 31.4223C17.4796 31.1191 17.5412 30.6892 17.8447 30.4619C18.1482 30.2346 18.5788 30.2961 18.8063 30.5993C19.0588 30.9355 19.3383 31.2583 19.645 31.5646C23.1322 35.0475 28.7861 35.0475 32.2734 31.5646C34.0403 29.8 34.9118 27.4811 34.8883 25.1674C34.888 25.1329 34.8902 25.099 34.8948 25.0659L32.7591 27.1988C32.4908 27.4667 32.0559 27.4667 31.7877 27.1988C31.5194 26.9309 31.5194 26.4966 31.7877 26.2286L34.7019 23.3181Z" fill="#252525"/>
</svg>
