<svg width="51" height="51" viewBox="0 0 51 51" fill="none" xmlns="http://www.w3.org/2000/svg">
<circle cx="25.3918" cy="25.3928" r="25.2582" fill="#fff" stroke="#fff" stroke-width="0.267282"/>
<path d="M17.0567 23.9227C16.756 24.2389 16.7681 24.7394 17.0839 25.0406C17.3996 25.3418 17.8994 25.3296 18.2001 25.0134L24.4685 18.4228V33.9566C24.4685 34.3933 24.822 34.7473 25.2581 34.7473C25.6941 34.7473 26.0476 34.3933 26.0476 33.9566V18.4225L32.3164 25.0134C32.6172 25.3296 33.1169 25.3418 33.4327 25.0406C33.7484 24.7394 33.7606 24.2389 33.4598 23.9227L26.0205 16.1011C25.851 15.9229 25.6348 15.8175 25.41 15.7849C25.3608 15.7753 25.31 15.7703 25.2581 15.7703C25.2058 15.7703 25.1546 15.7754 25.1052 15.7851C24.8809 15.8179 24.6652 15.9232 24.496 16.1011L17.0567 23.9227Z" fill="#252525"/>
</svg>
