<svg width="52" height="52" viewBox="0 0 52 52" fill="none" xmlns="http://www.w3.org/2000/svg">
<circle cx="26.1755" cy="25.7952" r="25.2582" fill="#fff" stroke="#fff" stroke-width="0.267282"/>
<path d="M34.5071 26.9977C34.8126 26.6815 34.8003 26.181 34.4795 25.8798C34.1588 25.5786 33.6511 25.5908 33.3455 25.907L26.9776 32.4976V16.9638C26.9776 16.5271 26.6185 16.1731 26.1755 16.1731C25.7326 16.1731 25.3735 16.5271 25.3735 16.9638V32.498L19.0052 25.907C18.6996 25.5908 18.1919 25.5786 17.8712 25.8798C17.5504 26.181 17.5381 26.6815 17.8436 26.9977L25.401 34.8193C25.5732 34.9976 25.7929 35.103 26.0212 35.1355C26.0712 35.1451 26.1228 35.1501 26.1755 35.1501C26.2287 35.1501 26.2806 35.1451 26.3309 35.1353C26.5587 35.1025 26.7779 34.9972 26.9497 34.8193L34.5071 26.9977Z" fill="#252525"/>
</svg>
