<?xml version="1.0" encoding="utf-8"?>
<!-- Generator: Adobe Illustrator 21.0.2, SVG Export Plug-In . SVG Version: 6.00 Build 0)  -->
<svg version="1.1" id="Layer_1" xmlns="http://www.w3.org/2000/svg" xmlns:xlink="http://www.w3.org/1999/xlink" x="0px" y="0px"
	 viewBox="0 0 21 23" style="enable-background:new 0 0 21 23;" xml:space="preserve">
<g>
	<path d="M18.2,2.4h-2.1V1.7c0-0.4-0.3-0.7-0.7-0.7c-0.4,0-0.7,0.3-0.7,0.7v0.7H6.3V1.7C6.3,1.3,6,1,5.6,1C5.2,1,4.9,1.3,4.9,1.7
		v0.7H2.8c-1.2,0-2.1,0.9-2.1,2.1v15.4C0.7,21,1.7,22,2.8,22h15.4c1.2,0,2.1-0.9,2.1-2.1V4.5C20.3,3.4,19.3,2.4,18.2,2.4z
		 M18.9,19.2c0,0.8-0.6,1.4-1.4,1.4h-14c-0.8,0-1.4-0.6-1.4-1.4V8.7h16.8V19.2z M18.9,7.3H2.1V5.2c0-0.8,0.6-1.4,1.4-1.4h1.4v0.7
		c0,0.4,0.3,0.7,0.7,0.7c0.4,0,0.7-0.3,0.7-0.7V3.8h8.4l0,0v0.7c0,0.4,0.3,0.7,0.7,0.7c0.4,0,0.7-0.3,0.7-0.7V3.8h1.4
		c0.8,0,1.4,0.6,1.4,1.4L18.9,7.3L18.9,7.3z"/>
	<path d="M14,10.8h2.8v2.8H14V10.8L14,10.8z"/>
	<path d="M14,15.7h2.8v2.8H14V15.7z"/>
	<path d="M9.1,15.7h2.8v2.8H9.1V15.7L9.1,15.7z"/>
	<path d="M9.1,10.8h2.8v2.8H9.1V10.8L9.1,10.8z"/>
	<path d="M4.2,15.7H7v2.8H4.2V15.7z"/>
	<path d="M4.2,10.8H7v2.8H4.2V10.8L4.2,10.8z"/>
</g>
</svg>
