<svg width="21" height="23" viewBox="0 0 21 23" fill="none" xmlns="http://www.w3.org/2000/svg">
<path d="M2.91629 5.41053C4.52672 5.41053 5.83232 4.19953 5.83232 2.70527C5.83232 1.21123 4.52672 2.13623e-08 2.91629 2.13623e-08C1.3056 2.13623e-08 -3.07022e-07 1.21123 -3.07022e-07 2.70527C0.000251205 4.19953 1.30585 5.41053 2.91629 5.41053ZM2.91629 1.4469C3.66529 1.4469 4.27269 2.0104 4.27269 2.70527C4.27269 3.40013 3.66529 3.96363 2.91629 3.96363C2.16728 3.96363 1.55988 3.40013 1.55988 2.70527C1.55988 2.0104 2.16728 1.4469 2.91629 1.4469Z" transform="translate(7.58374 12.5452)" fill="black" stroke="black" stroke-width="0.1"/>
<path d="M2.91629 5.41053C4.52672 5.41053 5.83232 4.19953 5.83232 2.70527C5.83232 1.21123 4.52672 2.13623e-08 2.91629 2.13623e-08C1.3056 2.13623e-08 -3.07022e-07 1.21123 -3.07022e-07 2.70527C0.000251205 4.19953 1.30585 5.41053 2.91629 5.41053ZM2.91629 1.4469C3.66529 1.4469 4.27269 2.0104 4.27269 2.70527C4.27269 3.40013 3.66529 3.96363 2.91629 3.96363C2.16728 3.96363 1.55988 3.40013 1.55988 2.70527C1.55988 2.0104 2.16728 1.4469 2.91629 1.4469Z" transform="translate(7.58374 12.5452)" fill="black" stroke="black" stroke-width="0.1"/>
<path d="M2.91629 5.41053C4.52672 5.41053 5.83232 4.19953 5.83232 2.70527C5.83232 1.21123 4.52672 2.13623e-08 2.91629 2.13623e-08C1.3056 2.13623e-08 -3.07022e-07 1.21123 -3.07022e-07 2.70527C0.000251205 4.19953 1.30585 5.41053 2.91629 5.41053ZM2.91629 1.4469C3.66529 1.4469 4.27269 2.0104 4.27269 2.70527C4.27269 3.40013 3.66529 3.96363 2.91629 3.96363C2.16728 3.96363 1.55988 3.40013 1.55988 2.70527C1.55988 2.0104 2.16728 1.4469 2.91629 1.4469Z" transform="translate(7.58374 12.5452)" fill="black" stroke="black" stroke-width="0.1"/>
<path d="M16.0837 7.50097V6.53287C16.0837 2.93043 13.383 0 9.49987 0C5.61652 0 2.91603 2.93043 2.91603 6.5331V7.5012H2.30266e-08V21H19V7.50097H16.0837ZM4.31495 6.5331H4.3162C4.3162 3.647 6.38841 1.2978 9.50013 1.2978C12.6116 1.2978 14.684 3.647 14.684 6.5331H14.6853V7.5012H4.31495V6.5331ZM17.6011 19.7022H1.39866V8.79877H17.6011V19.7022Z" transform="translate(1 1)" fill="black" stroke="black" stroke-width="0.1"/>
<path d="M16.0837 7.50097V6.53287C16.0837 2.93043 13.383 0 9.49987 0C5.61652 0 2.91603 2.93043 2.91603 6.5331V7.5012H2.30266e-08V21H19V7.50097H16.0837ZM4.31495 6.5331H4.3162C4.3162 3.647 6.38841 1.2978 9.50013 1.2978C12.6116 1.2978 14.684 3.647 14.684 6.5331H14.6853V7.5012H4.31495V6.5331ZM17.6011 19.7022H1.39866V8.79877H17.6011V19.7022Z" transform="translate(1 1)" fill="black" stroke="black" stroke-width="0.1"/>
<path d="M16.0837 7.50097V6.53287C16.0837 2.93043 13.383 0 9.49987 0C5.61652 0 2.91603 2.93043 2.91603 6.5331V7.5012H2.30266e-08V21H19V7.50097H16.0837ZM4.31495 6.5331H4.3162C4.3162 3.647 6.38841 1.2978 9.50013 1.2978C12.6116 1.2978 14.684 3.647 14.684 6.5331H14.6853V7.5012H4.31495V6.5331ZM17.6011 19.7022H1.39866V8.79877H17.6011V19.7022Z" transform="translate(1 1)" fill="black" stroke="black" stroke-width="0.1"/>
</svg>
