<svg width="26" height="17" viewBox="0 0 26 17" fill="none" xmlns="http://www.w3.org/2000/svg">
<path fill-rule="evenodd" clip-rule="evenodd" d="M23.8721 12.4644C23.8315 12.503 23.7833 12.5336 23.7302 12.5544C23.6771 12.5752 23.6203 12.5859 23.5628 12.5857H21.9899C21.9434 13.2406 21.6371 13.8542 21.1328 14.3024C20.6286 14.7507 19.9641 15 19.2739 15C18.5837 15 17.9193 14.7507 17.415 14.3024C16.9108 13.8542 16.6044 13.2406 16.558 12.5857H15.2996C15.2896 12.5857 15.2806 12.5806 15.2709 12.5806C15.2612 12.5806 15.2515 12.5857 15.2402 12.5857H8.37078C8.3243 13.2406 8.01795 13.8542 7.51373 14.3024C7.0095 14.7507 6.34505 15 5.65482 15C4.9646 15 4.30015 14.7507 3.79592 14.3024C3.2917 13.8542 2.98535 13.2406 2.93887 12.5857H0V11.7565H3.02537C3.09333 11.4995 3.20308 11.2541 3.35065 11.0292L3.35766 11.0172L3.36735 11.0054L3.36434 11.0096C3.39273 10.9683 3.42612 10.9222 3.46453 10.874C3.48624 10.8422 3.49325 10.8387 3.5016 10.8263C3.535 10.785 3.5724 10.7418 3.62717 10.684C3.63052 10.6795 3.63432 10.6752 3.63852 10.6713C3.64908 10.6602 3.66022 10.6496 3.67192 10.6396C3.69296 10.6161 3.72368 10.5834 3.7661 10.5443C3.77283 10.5368 3.7802 10.5297 3.78814 10.5233L3.79348 10.5157L3.83222 10.484C3.88098 10.4446 3.91237 10.4204 3.9254 10.409C3.95504 10.3821 3.98775 10.3585 4.02291 10.3385C4.09341 10.2871 4.16677 10.2392 4.24266 10.1953C4.2607 10.1854 4.28908 10.1686 4.32181 10.1492L4.33751 10.1407L4.34986 10.134C4.35254 10.134 4.38326 10.1156 4.44504 10.0902C4.48454 10.0688 4.52549 10.0499 4.56761 10.0336C4.60096 10.0183 4.63545 10.0054 4.6708 9.99489C4.73092 9.96948 4.77099 9.95868 4.79237 9.95043C4.82877 9.93868 4.86116 9.93042 4.88888 9.92343C4.93982 9.90722 4.9921 9.89511 5.04517 9.88723C5.04517 9.88723 5.0749 9.87802 5.13334 9.86563C5.21349 9.8488 5.2716 9.84531 5.31969 9.83832C5.34208 9.8369 5.36438 9.83436 5.38648 9.8307C5.47499 9.82173 5.56399 9.81791 5.65299 9.81927C5.73899 9.81819 5.82498 9.82211 5.91047 9.83102C5.93919 9.83356 5.96257 9.83673 5.97559 9.83864L6.00164 9.84181C6.04105 9.8469 6.09749 9.85102 6.18132 9.86786C6.20479 9.87215 6.2279 9.87809 6.25045 9.88564C6.30514 9.89459 6.35914 9.907 6.41208 9.9228C6.44982 9.93201 6.48589 9.94281 6.52797 9.95456C6.55201 9.96281 6.59176 9.97552 6.64319 9.99743C6.67882 10.008 6.71364 10.021 6.74738 10.0362C6.79147 10.054 6.8292 10.0724 6.86227 10.0892C6.9007 10.1058 6.93816 10.1243 6.97448 10.1448L7.04595 10.1835L7.06932 10.1937L7.08969 10.207C7.14647 10.2432 7.21359 10.2845 7.28506 10.3385C7.31344 10.3534 7.34027 10.3709 7.36521 10.3906L7.37857 10.4014L7.3916 10.4131C7.40529 10.4258 7.43234 10.4474 7.4821 10.4922L7.48978 10.496C7.50975 10.5103 7.52851 10.526 7.54589 10.543C7.58563 10.5808 7.62337 10.6189 7.6404 10.6383C7.66596 10.6616 7.69005 10.6863 7.71253 10.7123C7.75294 10.758 7.77933 10.7898 7.79469 10.8076L7.80671 10.8203L7.81139 10.8235L7.81807 10.8317L7.84345 10.8597L7.84879 10.8724C7.89321 10.9286 7.92326 10.9759 7.94898 11.0102L7.98705 11.0642L7.99073 11.0801C8.07334 11.2117 8.14405 11.3499 8.20212 11.4929H8.23352L8.29129 11.7565H12.7034H14.805V2.61019C14.8066 2.54184 14.8264 2.47497 14.8624 2.41583V0.831743H0.874982V11.7565H0L0.000333905 0H15.7358V2.19385H20.3668C20.4355 2.19388 20.5033 2.20927 20.5646 2.23879C20.6259 2.2683 20.6791 2.31111 20.7198 2.36375L23.9152 6.52024C23.9702 6.5915 24 6.67762 24 6.76605V12.1694C24.0002 12.2241 23.989 12.2784 23.9671 12.329C23.9451 12.3797 23.9128 12.4257 23.8721 12.4644ZM7.47509 12.0966L7.45238 12.0033C7.40491 11.8139 7.32479 11.6333 7.21526 11.4688L7.18187 11.4183L7.1802 11.4122C7.17252 11.4015 7.16484 11.3913 7.15782 11.383C7.1412 11.3648 7.12559 11.3457 7.11107 11.3259C7.07767 11.2881 7.0563 11.2604 7.04094 11.2442V11.2411C7.03492 11.236 7.02624 11.2277 7.01221 11.2141C6.98784 11.1887 6.96412 11.1645 6.93975 11.1407C6.92186 11.1283 6.90531 11.1143 6.89032 11.0988C6.88164 11.0899 6.86093 11.0737 6.83154 11.0483L6.81117 11.04L6.76575 11.0038C6.72112 10.9696 6.67452 10.9378 6.62615 10.9086C6.59075 10.8908 6.56671 10.8768 6.54767 10.8673C6.52864 10.8578 6.52229 10.8539 6.51628 10.8489L6.49858 10.8419L6.4742 10.8292C6.45365 10.8183 6.43247 10.8085 6.41075 10.8C6.39438 10.7933 6.38303 10.7882 6.37735 10.7863L6.34763 10.7796L6.30421 10.7606C6.28427 10.7522 6.26387 10.7449 6.2431 10.7387C6.2294 10.7337 6.21534 10.7298 6.20102 10.7269L6.16495 10.7193L6.13423 10.7085C6.12521 10.7059 6.10684 10.7034 6.06243 10.6945C6.02502 10.6853 5.99997 10.6777 5.99997 10.6777C5.97827 10.6742 5.94186 10.6701 5.9068 10.6643C5.88883 10.6639 5.87094 10.6619 5.85336 10.6583H5.84301L5.81529 10.6551C5.76141 10.6495 5.70717 10.6474 5.65299 10.6491C5.59868 10.6477 5.54433 10.6499 5.49035 10.6558L5.46229 10.6589H5.45762C5.4496 10.6609 5.43825 10.6624 5.42422 10.664C5.36645 10.671 5.3227 10.6767 5.31902 10.6767C5.31535 10.6767 5.29665 10.6834 5.22919 10.6996C5.20663 10.7018 5.18429 10.7057 5.1624 10.7113L5.14336 10.7183L5.12432 10.7234C5.10562 10.7279 5.08525 10.7326 5.09093 10.731C5.05753 10.7434 5.03783 10.7485 5.02681 10.7536H5.02313L4.9727 10.7787L4.93196 10.7873C4.92528 10.7904 4.91526 10.7949 4.90157 10.8C4.8969 10.8015 4.87318 10.8133 4.84814 10.8266L4.81474 10.8435L4.79203 10.852C4.78736 10.8539 4.77567 10.8603 4.75863 10.8689L4.69385 10.906C4.64132 10.9364 4.5906 10.9695 4.54189 11.0051L4.5085 11.0305L4.49313 11.0391C4.46174 11.0651 4.43536 11.0855 4.41766 11.1004C4.39996 11.1153 4.3886 11.1258 4.37992 11.1321L4.37257 11.1398C4.35988 11.1499 4.34252 11.1693 4.29977 11.2147L4.26971 11.2465L4.26036 11.2525C4.23598 11.2785 4.2116 11.3065 4.19991 11.3208L4.19658 11.3249L4.19257 11.3309L4.17019 11.3602C4.14715 11.3919 4.12143 11.4259 4.08704 11.4729C3.97859 11.6376 3.8996 11.8182 3.85326 12.0074C3.81914 12.1377 3.80176 12.2714 3.8015 12.4056C3.80151 12.6499 3.85498 12.8914 3.95849 13.115C4.06199 13.3385 4.21328 13.5391 4.40273 13.704C4.59218 13.8689 4.81564 13.9945 5.05891 14.0729C5.30218 14.1512 5.55992 14.1805 5.81576 14.159C6.0716 14.1375 6.31992 14.0656 6.54495 13.9479C6.76998 13.8301 6.96679 13.6692 7.12285 13.4752C7.27892 13.2812 7.39083 13.0585 7.45147 12.8211C7.51211 12.5838 7.52015 12.3371 7.47509 12.0966ZM19.2734 14.1701C19.5447 14.1708 19.8128 14.1147 20.0586 14.0056C20.3045 13.8966 20.522 13.7374 20.6958 13.5394C20.8696 13.3413 20.9954 13.1093 21.0642 12.8597C21.133 12.6102 21.1431 12.3493 21.0939 12.0957L21.0711 12.0023C21.0237 11.8129 20.9436 11.6323 20.834 11.4678L20.8006 11.4173L20.799 11.4113C20.7913 11.4005 20.7836 11.3903 20.7766 11.3821C20.76 11.3638 20.7444 11.3447 20.7298 11.3249C20.6964 11.2871 20.6751 11.2595 20.6597 11.2433V11.2401C20.6537 11.235 20.645 11.2268 20.631 11.2131C20.6066 11.1877 20.5829 11.1636 20.5585 11.1398C20.5406 11.1274 20.5241 11.1133 20.5091 11.0978C20.5004 11.089 20.4797 11.0728 20.4503 11.0473L20.4299 11.0391L20.3845 11.0029C20.3399 10.9687 20.2933 10.9369 20.2449 10.9076C20.2095 10.8898 20.1855 10.8759 20.1664 10.8663C20.1474 10.8568 20.1411 10.853 20.135 10.8479L20.1173 10.8409L20.093 10.8282C20.0724 10.8173 20.0512 10.8076 20.0295 10.799C20.0132 10.7923 20.0018 10.7873 19.9961 10.7853L19.9664 10.7787L19.923 10.7596C19.903 10.7513 19.8826 10.744 19.8619 10.7377C19.8471 10.7332 19.8321 10.7298 19.8168 10.7275L19.7807 10.7199L19.753 10.7085C19.744 10.7059 19.7256 10.7034 19.6812 10.6945C19.6438 10.6853 19.6187 10.6777 19.6187 10.6777C19.597 10.6742 19.5606 10.6701 19.5256 10.6643C19.5076 10.6639 19.4897 10.6619 19.4721 10.6583H19.4621L19.4344 10.6551C19.381 10.6493 19.3272 10.6471 19.2734 10.6485C19.2191 10.6471 19.1648 10.6493 19.1108 10.6551L19.0827 10.6583H19.0764C19.0684 10.6602 19.057 10.6618 19.043 10.6634C18.9855 10.6701 18.9428 10.6761 18.9368 10.6767C18.9308 10.6774 18.9144 10.6834 18.847 10.6996C18.8244 10.7018 18.8021 10.7057 18.7802 10.7113L18.7611 10.7183L18.7421 10.7234C18.7234 10.7279 18.703 10.7326 18.7087 10.731C18.6753 10.7434 18.6556 10.7485 18.6446 10.7536H18.6422L18.5918 10.7787L18.5511 10.7873C18.5444 10.7904 18.5344 10.7949 18.5207 10.8C18.516 10.8015 18.4923 10.8133 18.4672 10.8266L18.4338 10.8435L18.4111 10.852C18.4065 10.8539 18.3948 10.8603 18.3777 10.8689L18.3129 10.906C18.2604 10.9364 18.2097 10.9695 18.161 11.0051L18.1276 11.0305L18.1122 11.0391C18.0808 11.0651 18.0545 11.0855 18.0368 11.1004C18.0191 11.1153 18.0077 11.1258 17.999 11.1321L17.9917 11.1398C17.979 11.1499 17.9616 11.1693 17.9189 11.2147L17.8888 11.2465L17.8795 11.2525C17.8551 11.2785 17.8307 11.3065 17.819 11.3208L17.8157 11.3249L17.8117 11.3309L17.7893 11.3602C17.7663 11.3919 17.7405 11.4259 17.7061 11.4729C17.5977 11.6376 17.5187 11.8182 17.4724 12.0074C17.4382 12.1377 17.4209 12.2714 17.4206 12.4056C17.421 12.873 17.6163 13.3212 17.9636 13.652C18.3109 13.9827 18.7819 14.169 19.2734 14.1701ZM20.1444 3.02305H18.005V6.36971H22.7166L20.1444 3.02305ZM23.1254 7.19796H17.5682C17.4526 7.19754 17.3418 7.15374 17.2599 7.07607C17.1781 6.99841 17.1318 6.89316 17.1311 6.7832V3.02527H15.678V11.7565H16.6441C16.7121 11.4995 16.8218 11.2541 16.9694 11.0292L16.9764 11.0172L16.9861 11.0054L16.9831 11.0096C17.0115 10.9683 17.0449 10.9222 17.0833 10.874C17.105 10.8422 17.112 10.8387 17.1204 10.8263C17.1538 10.785 17.1912 10.7418 17.2459 10.684C17.2493 10.6795 17.2531 10.6752 17.2573 10.6713C17.2678 10.6602 17.279 10.6496 17.2907 10.6396C17.3117 10.6161 17.3425 10.5834 17.3849 10.5443C17.3916 10.5368 17.399 10.5297 17.4069 10.5233L17.4123 10.5157L17.451 10.484C17.4998 10.4446 17.5311 10.4204 17.5442 10.409C17.5738 10.3821 17.6065 10.3585 17.6417 10.3385C17.7122 10.2871 17.7855 10.2392 17.8614 10.1953C17.8795 10.1854 17.9079 10.1686 17.9406 10.1492L17.9563 10.1407L17.9686 10.134C17.9713 10.134 18.002 10.1156 18.0638 10.0902C18.1033 10.0688 18.1443 10.0499 18.1864 10.0336C18.2197 10.0183 18.2542 10.0054 18.2896 9.99489C18.3497 9.96948 18.3898 9.95868 18.4111 9.95043C18.4475 9.93868 18.4799 9.93042 18.5076 9.92343C18.5586 9.90722 18.6109 9.89511 18.6639 9.88723C18.6639 9.88723 18.6937 9.87802 18.7521 9.86563C18.8323 9.8488 18.8904 9.84531 18.9385 9.83832C18.9608 9.8369 18.9831 9.83436 19.0053 9.8307C19.0946 9.82099 19.1845 9.81653 19.2744 9.81736C19.3604 9.81628 19.4464 9.82021 19.5319 9.82911C19.5606 9.83165 19.584 9.83483 19.597 9.83673L19.6231 9.83991C19.6625 9.84499 19.7189 9.84912 19.8028 9.86595C19.8262 9.87024 19.8493 9.87619 19.8719 9.88373C19.9266 9.89268 19.9806 9.90509 20.0335 9.92089C20.0713 9.9301 20.1073 9.9409 20.1494 9.95265C20.1735 9.96091 20.2132 9.97361 20.2646 9.99552C20.3003 10.0061 20.3351 10.0191 20.3688 10.0343C20.4129 10.0521 20.4506 10.0705 20.4837 10.0873C20.5221 10.1039 20.5596 10.1224 20.5959 10.1429L20.6674 10.1816L20.6908 10.1918L20.7111 10.2051C20.7679 10.2413 20.835 10.2826 20.9065 10.3366C20.9349 10.3515 20.9617 10.369 20.9867 10.3887L21 10.3995L21.013 10.4112C21.0267 10.4239 21.0538 10.4455 21.1035 10.4903L21.1082 10.4944C21.1282 10.5087 21.1469 10.5244 21.1643 10.5414C21.2041 10.5792 21.2418 10.6173 21.2588 10.6367C21.2844 10.66 21.3085 10.6847 21.331 10.7107C21.3714 10.7564 21.3978 10.7882 21.4131 10.806L21.4251 10.8187L21.4298 10.8219L21.4365 10.8301L21.4619 10.8581L21.4672 10.8708C21.5116 10.927 21.5417 10.9743 21.5674 11.0086L21.6055 11.0626L21.6108 11.0804C21.6934 11.2121 21.7642 11.3502 21.8222 11.4932H21.8536L21.9117 11.7565H23.1257V7.20018L23.1254 7.19796Z" transform="translate(1 1)" fill="black"/>
<path d="M0 11.7565V12.5857H2.93887C2.98535 13.2406 3.2917 13.8542 3.79592 14.3024C4.30015 14.7507 4.9646 15 5.65482 15C6.34505 15 7.0095 14.7507 7.51373 14.3024C8.01795 13.8542 8.3243 13.2406 8.37078 12.5857H15.2402C15.2515 12.5857 15.2612 12.5806 15.2709 12.5806C15.2806 12.5806 15.2896 12.5857 15.2996 12.5857H16.558C16.6044 13.2406 16.9108 13.8542 17.415 14.3024C17.9193 14.7507 18.5837 15 19.2739 15C19.9641 15 20.6286 14.7507 21.1328 14.3024C21.6371 13.8542 21.9434 13.2406 21.9899 12.5857H23.5628C23.6203 12.5859 23.6771 12.5752 23.7302 12.5544C23.7833 12.5336 23.8315 12.503 23.8721 12.4644C23.9128 12.4257 23.9451 12.3797 23.9671 12.329C23.989 12.2784 24.0002 12.2241 24 12.1694V6.76605C24 6.67762 23.9702 6.5915 23.9152 6.52024L20.7198 2.36375C20.6791 2.31111 20.6259 2.2683 20.5646 2.23879C20.5033 2.20927 20.4355 2.19388 20.3668 2.19385H15.7358V0H0.000333905L0 11.7565ZM0 11.7565H3.02537C3.09333 11.4995 3.20308 11.2541 3.35065 11.0292L3.35766 11.0172L3.36735 11.0054L3.36434 11.0096C3.39273 10.9683 3.42612 10.9222 3.46453 10.874C3.48624 10.8422 3.49325 10.8387 3.5016 10.8263C3.535 10.785 3.5724 10.7418 3.62717 10.684C3.63052 10.6795 3.63432 10.6752 3.63852 10.6713C3.64908 10.6602 3.66022 10.6496 3.67192 10.6396C3.69296 10.6161 3.72368 10.5834 3.7661 10.5443C3.77283 10.5368 3.7802 10.5297 3.78814 10.5233L3.79348 10.5157L3.83222 10.484C3.88098 10.4446 3.91237 10.4204 3.9254 10.409C3.95504 10.3821 3.98775 10.3585 4.02291 10.3385C4.09341 10.2871 4.16677 10.2392 4.24266 10.1953C4.2607 10.1854 4.28908 10.1686 4.32181 10.1492L4.33751 10.1407L4.34986 10.134C4.35254 10.134 4.38326 10.1156 4.44504 10.0902C4.48454 10.0688 4.52549 10.0499 4.56761 10.0336C4.60096 10.0183 4.63545 10.0054 4.6708 9.99489C4.73092 9.96948 4.77099 9.95868 4.79237 9.95043C4.82877 9.93868 4.86116 9.93042 4.88888 9.92343C4.93982 9.90722 4.9921 9.89511 5.04517 9.88723C5.04517 9.88723 5.0749 9.87802 5.13334 9.86563C5.21349 9.8488 5.2716 9.84531 5.31969 9.83832C5.34208 9.8369 5.36438 9.83436 5.38648 9.8307C5.47499 9.82173 5.56399 9.81791 5.65299 9.81927C5.73899 9.81819 5.82498 9.82211 5.91047 9.83102C5.93919 9.83356 5.96257 9.83673 5.97559 9.83864L6.00164 9.84181C6.04105 9.8469 6.09749 9.85102 6.18132 9.86786C6.20479 9.87215 6.2279 9.87809 6.25045 9.88564C6.30514 9.89459 6.35914 9.907 6.41208 9.9228C6.44982 9.93201 6.48589 9.94281 6.52797 9.95456C6.55201 9.96281 6.59176 9.97552 6.64319 9.99743C6.67882 10.008 6.71364 10.021 6.74738 10.0362C6.79147 10.054 6.8292 10.0724 6.86227 10.0892C6.9007 10.1058 6.93816 10.1243 6.97448 10.1448L7.04595 10.1835L7.06932 10.1937L7.08969 10.207C7.14647 10.2432 7.21359 10.2845 7.28506 10.3385C7.31344 10.3534 7.34027 10.3709 7.36521 10.3906L7.37857 10.4014L7.3916 10.4131C7.40529 10.4258 7.43234 10.4474 7.4821 10.4922L7.48978 10.496C7.50975 10.5103 7.52851 10.526 7.54589 10.543C7.58563 10.5808 7.62337 10.6189 7.6404 10.6383C7.66596 10.6616 7.69005 10.6863 7.71253 10.7123C7.75294 10.758 7.77933 10.7898 7.79469 10.8076L7.80671 10.8203L7.81139 10.8235L7.81807 10.8317L7.84345 10.8597L7.84879 10.8724C7.89321 10.9286 7.92327 10.9759 7.94898 11.0102L7.98705 11.0642L7.99073 11.0801C8.07334 11.2117 8.14405 11.3499 8.20212 11.4929H8.23352L8.29129 11.7565H12.7034H14.805V2.61019C14.8066 2.54184 14.8264 2.47497 14.8624 2.41583V0.831743H0.874982V11.7565H0ZM7.47509 12.0966L7.45238 12.0033C7.40491 11.8139 7.32479 11.6333 7.21526 11.4688L7.18187 11.4183L7.1802 11.4122C7.17252 11.4015 7.16484 11.3913 7.15782 11.383C7.1412 11.3648 7.12559 11.3457 7.11107 11.3259C7.07767 11.2881 7.0563 11.2604 7.04094 11.2442V11.2411C7.03492 11.236 7.02624 11.2277 7.01221 11.2141C6.98784 11.1887 6.96412 11.1645 6.93975 11.1407C6.92186 11.1283 6.90531 11.1143 6.89032 11.0988C6.88164 11.0899 6.86093 11.0737 6.83154 11.0483L6.81117 11.04L6.76575 11.0038C6.72112 10.9696 6.67452 10.9378 6.62615 10.9086C6.59075 10.8908 6.56671 10.8768 6.54767 10.8673C6.52864 10.8578 6.52229 10.8539 6.51628 10.8489L6.49858 10.8419L6.4742 10.8292C6.45365 10.8183 6.43247 10.8085 6.41075 10.8C6.39438 10.7933 6.38303 10.7882 6.37735 10.7863L6.34763 10.7796L6.30421 10.7606C6.28427 10.7522 6.26387 10.7449 6.2431 10.7387C6.2294 10.7337 6.21534 10.7298 6.20102 10.7269L6.16495 10.7193L6.13423 10.7085C6.12521 10.7059 6.10684 10.7034 6.06243 10.6945C6.02502 10.6853 5.99997 10.6777 5.99997 10.6777C5.97827 10.6742 5.94186 10.6701 5.9068 10.6643C5.88883 10.6639 5.87094 10.6619 5.85336 10.6583H5.84301L5.81529 10.6551C5.76141 10.6495 5.70717 10.6474 5.65299 10.6491C5.59868 10.6477 5.54433 10.6499 5.49035 10.6558L5.46229 10.6589H5.45762C5.4496 10.6609 5.43825 10.6624 5.42422 10.664C5.36645 10.671 5.3227 10.6767 5.31902 10.6767C5.31535 10.6767 5.29665 10.6834 5.22919 10.6996C5.20663 10.7018 5.18429 10.7057 5.1624 10.7113L5.14336 10.7183L5.12432 10.7234C5.10562 10.7279 5.08525 10.7326 5.09093 10.731C5.05753 10.7434 5.03783 10.7485 5.02681 10.7536H5.02313L4.9727 10.7787L4.93196 10.7873C4.92528 10.7904 4.91526 10.7949 4.90157 10.8C4.8969 10.8015 4.87318 10.8133 4.84814 10.8266L4.81474 10.8435L4.79203 10.852C4.78736 10.8539 4.77567 10.8603 4.75863 10.8689L4.69385 10.906C4.64132 10.9364 4.5906 10.9695 4.54189 11.0051L4.5085 11.0305L4.49313 11.0391C4.46174 11.0651 4.43536 11.0855 4.41766 11.1004C4.39996 11.1153 4.3886 11.1258 4.37992 11.1321L4.37257 11.1398C4.35988 11.1499 4.34252 11.1693 4.29977 11.2147L4.26971 11.2465L4.26036 11.2525C4.23598 11.2785 4.2116 11.3065 4.19991 11.3208L4.19658 11.3249L4.19257 11.3309L4.17019 11.3602C4.14715 11.3919 4.12143 11.4259 4.08704 11.4729C3.97859 11.6376 3.8996 11.8182 3.85326 12.0074C3.81914 12.1377 3.80176 12.2714 3.8015 12.4056C3.80151 12.6499 3.85498 12.8914 3.95849 13.115C4.06199 13.3385 4.21328 13.5391 4.40273 13.704C4.59218 13.8689 4.81564 13.9945 5.05891 14.0729C5.30217 14.1512 5.55992 14.1805 5.81576 14.159C6.0716 14.1375 6.31992 14.0656 6.54495 13.9479C6.76998 13.8301 6.96679 13.6692 7.12285 13.4752C7.27892 13.2812 7.39083 13.0585 7.45147 12.8211C7.51211 12.5838 7.52015 12.3371 7.47509 12.0966ZM19.2734 14.1701C19.5447 14.1708 19.8128 14.1147 20.0586 14.0056C20.3045 13.8966 20.522 13.7374 20.6958 13.5394C20.8696 13.3413 20.9954 13.1093 21.0642 12.8597C21.133 12.6102 21.1431 12.3493 21.0939 12.0957L21.0711 12.0023C21.0237 11.8129 20.9436 11.6323 20.834 11.4678L20.8006 11.4173L20.799 11.4113C20.7913 11.4005 20.7836 11.3903 20.7766 11.3821C20.76 11.3638 20.7444 11.3447 20.7298 11.3249C20.6964 11.2871 20.6751 11.2595 20.6597 11.2433V11.2401C20.6537 11.235 20.645 11.2268 20.631 11.2131C20.6066 11.1877 20.5829 11.1636 20.5585 11.1398C20.5406 11.1274 20.5241 11.1133 20.5091 11.0978C20.5004 11.089 20.4797 11.0728 20.4503 11.0473L20.4299 11.0391L20.3845 11.0029C20.3399 10.9687 20.2933 10.9369 20.2449 10.9076C20.2095 10.8898 20.1855 10.8759 20.1664 10.8663C20.1474 10.8568 20.1411 10.853 20.135 10.8479L20.1173 10.8409L20.093 10.8282C20.0724 10.8173 20.0512 10.8076 20.0295 10.799C20.0132 10.7923 20.0018 10.7873 19.9961 10.7853L19.9664 10.7787L19.923 10.7596C19.903 10.7513 19.8826 10.744 19.8619 10.7377C19.8471 10.7332 19.8321 10.7298 19.8168 10.7275L19.7807 10.7199L19.753 10.7085C19.744 10.7059 19.7256 10.7034 19.6812 10.6945C19.6438 10.6853 19.6187 10.6777 19.6187 10.6777C19.597 10.6742 19.5606 10.6701 19.5256 10.6643C19.5076 10.6639 19.4897 10.6619 19.4721 10.6583H19.4621L19.4344 10.6551C19.381 10.6493 19.3272 10.6471 19.2734 10.6485C19.2191 10.6471 19.1648 10.6493 19.1108 10.6551L19.0827 10.6583H19.0764C19.0684 10.6602 19.057 10.6618 19.043 10.6634C18.9855 10.6701 18.9428 10.6761 18.9368 10.6767C18.9308 10.6774 18.9144 10.6834 18.847 10.6996C18.8244 10.7018 18.8021 10.7057 18.7802 10.7113L18.7611 10.7183L18.7421 10.7234C18.7234 10.7279 18.703 10.7326 18.7087 10.731C18.6753 10.7434 18.6556 10.7485 18.6446 10.7536H18.6422L18.5918 10.7787L18.5511 10.7873C18.5444 10.7904 18.5344 10.7949 18.5207 10.8C18.516 10.8015 18.4923 10.8133 18.4672 10.8266L18.4338 10.8435L18.4111 10.852C18.4065 10.8539 18.3948 10.8603 18.3777 10.8689L18.3129 10.906C18.2604 10.9364 18.2097 10.9695 18.161 11.0051L18.1276 11.0305L18.1122 11.0391C18.0808 11.0651 18.0545 11.0855 18.0368 11.1004C18.0191 11.1153 18.0077 11.1258 17.999 11.1321L17.9917 11.1398C17.979 11.1499 17.9616 11.1693 17.9189 11.2147L17.8888 11.2465L17.8795 11.2525C17.8551 11.2785 17.8307 11.3065 17.819 11.3208L17.8157 11.3249L17.8117 11.3309L17.7893 11.3602C17.7662 11.3919 17.7405 11.4259 17.7061 11.4729C17.5977 11.6376 17.5187 11.8182 17.4724 12.0074C17.4382 12.1377 17.4209 12.2714 17.4206 12.4056C17.421 12.873 17.6163 13.3212 17.9636 13.652C18.3109 13.9827 18.7819 14.169 19.2734 14.1701ZM20.1444 3.02305H18.005V6.36971H22.7166L20.1444 3.02305ZM23.1254 7.19796H17.5682C17.4526 7.19754 17.3418 7.15374 17.2599 7.07607C17.1781 6.99841 17.1318 6.89316 17.1311 6.7832V3.02527H15.678V11.7565H16.6441C16.7121 11.4995 16.8218 11.2541 16.9694 11.0292L16.9764 11.0172L16.9861 11.0054L16.9831 11.0096C17.0115 10.9683 17.0449 10.9222 17.0833 10.874C17.105 10.8422 17.112 10.8387 17.1204 10.8263C17.1538 10.785 17.1912 10.7418 17.2459 10.684C17.2493 10.6795 17.2531 10.6752 17.2573 10.6713C17.2678 10.6602 17.279 10.6496 17.2907 10.6396C17.3117 10.6161 17.3425 10.5834 17.3849 10.5443C17.3916 10.5368 17.399 10.5297 17.4069 10.5233L17.4123 10.5157L17.451 10.484C17.4997 10.4446 17.5311 10.4204 17.5442 10.409C17.5738 10.3821 17.6065 10.3585 17.6417 10.3385C17.7122 10.2871 17.7855 10.2392 17.8614 10.1953C17.8795 10.1854 17.9079 10.1686 17.9406 10.1492L17.9563 10.1407L17.9686 10.134C17.9713 10.134 18.002 10.1156 18.0638 10.0902C18.1033 10.0688 18.1443 10.0499 18.1864 10.0336C18.2197 10.0183 18.2542 10.0054 18.2896 9.99489C18.3497 9.96948 18.3898 9.95868 18.4111 9.95043C18.4475 9.93868 18.4799 9.93042 18.5076 9.92343C18.5586 9.90722 18.6109 9.89511 18.6639 9.88723C18.6639 9.88723 18.6937 9.87802 18.7521 9.86563C18.8323 9.8488 18.8904 9.84531 18.9385 9.83832C18.9608 9.8369 18.9831 9.83436 19.0053 9.8307C19.0946 9.82099 19.1845 9.81653 19.2744 9.81736C19.3604 9.81628 19.4464 9.82021 19.5319 9.82911C19.5606 9.83165 19.584 9.83483 19.597 9.83673L19.6231 9.83991C19.6625 9.84499 19.7189 9.84912 19.8028 9.86595C19.8262 9.87024 19.8493 9.87619 19.8719 9.88373C19.9266 9.89268 19.9806 9.90509 20.0335 9.92089C20.0713 9.9301 20.1073 9.9409 20.1494 9.95265C20.1735 9.96091 20.2132 9.97361 20.2646 9.99552C20.3003 10.0061 20.3351 10.0191 20.3688 10.0343C20.4129 10.0521 20.4506 10.0705 20.4837 10.0873C20.5221 10.1039 20.5596 10.1224 20.5959 10.1429L20.6674 10.1816L20.6908 10.1918L20.7111 10.2051C20.7679 10.2413 20.835 10.2826 20.9065 10.3366C20.9349 10.3515 20.9617 10.369 20.9867 10.3887L21 10.3995L21.013 10.4112C21.0267 10.4239 21.0538 10.4455 21.1035 10.4903L21.1082 10.4944C21.1282 10.5087 21.1469 10.5244 21.1643 10.5414C21.2041 10.5792 21.2418 10.6173 21.2588 10.6367C21.2844 10.66 21.3085 10.6847 21.331 10.7107C21.3714 10.7564 21.3978 10.7882 21.4131 10.806L21.4251 10.8187L21.4298 10.8219L21.4365 10.8301L21.4619 10.8581L21.4672 10.8708C21.5116 10.927 21.5417 10.9743 21.5674 11.0086L21.6055 11.0626L21.6108 11.0804C21.6934 11.2121 21.7642 11.3502 21.8222 11.4932H21.8536L21.9117 11.7565H23.1257V7.20018L23.1254 7.19796Z" transform="translate(1 1)" stroke="black" stroke-width="0.6"/>
</svg>
