<svg width="21" height="22" viewBox="0 0 21 22" fill="none" xmlns="http://www.w3.org/2000/svg">
<path fill-rule="evenodd" clip-rule="evenodd" d="M9.50013 20C7.46595 20.0003 5.48541 19.334 3.85001 18.099C2.21461 16.864 1.01074 15.1257 0.415613 13.1399C-0.179518 11.154 -0.134478 9.0256 0.544104 7.06786C1.22269 5.11012 2.49896 3.42649 4.18508 2.26478L1.9666 0H8.89314V7.07133L6.52243 4.65115C5.24264 5.35501 4.24147 6.49009 3.68951 7.86302C3.13754 9.23595 3.06892 10.7618 3.49533 12.1806C3.92174 13.5994 4.81681 14.8233 6.02804 15.644C7.23928 16.4646 8.69174 16.8311 10.138 16.681C11.5842 16.531 12.9348 15.8737 13.9595 14.8211C14.9843 13.7684 15.6198 12.3857 15.7579 10.9083C15.8961 9.43094 15.5282 7.95039 14.7169 6.7189C13.9057 5.4874 12.7013 4.58115 11.309 4.15453V0.778903C13.628 1.23829 15.6963 2.56322 17.1102 4.4952C18.5241 6.42717 19.1824 8.82762 18.9564 11.2283C18.7305 13.6289 17.6367 15.8575 15.8883 17.4793C14.1399 19.1011 11.8624 19.9998 9.50013 20V20ZM9.5018 12.5889C9.05915 12.5889 8.62644 12.4549 8.2584 12.2039C7.89035 11.9528 7.60349 11.5959 7.43409 11.1784C7.2647 10.7609 7.22038 10.3015 7.30673 9.85831C7.39309 9.4151 7.60625 9.00798 7.91925 8.68843C8.23225 8.36889 8.63103 8.15128 9.06517 8.06312C9.49932 7.97496 9.94932 8.0202 10.3583 8.19314C10.7672 8.36607 11.1168 8.65893 11.3627 9.03467C11.6086 9.41041 11.7399 9.85217 11.7399 10.3041C11.7399 10.91 11.5041 11.4912 11.0844 11.9197C10.6646 12.3482 10.0954 12.5889 9.5018 12.5889V12.5889Z" transform="translate(1 1)" stroke="black" stroke-width="1.3"/>
</svg>
