<svg width="21" height="14" viewBox="0 0 21 14" fill="none" xmlns="http://www.w3.org/2000/svg">
<path d="M11.1782 3.4779V3.40253V3.29407C11.1782 2.889 10.8695 2.57062 10.5005 2.57062C10.1312 2.57062 9.82253 2.88925 9.82253 3.29407V3.40476V3.47985L9.75042 3.50079C8.77114 3.78512 8.0723 4.60512 8.0723 5.55864C8.0723 6.36476 8.42246 6.84449 8.87724 7.1529C9.3393 7.46626 9.91109 7.604 10.355 7.71013C10.355 7.71013 10.355 7.71014 10.355 7.71014L10.3318 7.8074C11.379 8.05742 11.4725 8.17305 11.4725 8.44086C11.4725 8.73264 11.0567 9.05852 10.5002 9.05852C9.99973 9.05852 9.6369 8.80083 9.54917 8.55847L11.1782 3.4779ZM11.1782 3.4779L11.2506 3.49866M11.1782 3.4779L11.2506 3.49866M11.2506 3.49866C11.9824 3.7084 12.5679 4.21685 12.81 4.88674C12.9768 5.34895 12.7395 5.70233 12.4207 5.83145C12.2602 5.89646 12.0823 5.90286 11.9262 5.83944C11.7722 5.77682 11.63 5.64235 11.5449 5.40704L11.4508 5.44104L11.5449 5.40719C11.491 5.25717 11.3583 5.11596 11.1804 5.0134C11.0006 4.90972 10.7674 4.84099 10.5 4.84099C10.2027 4.84099 9.93993 4.92797 9.74904 5.0578C9.56194 5.18506 9.42793 5.36605 9.42793 5.55864C9.42793 5.63104 9.43372 5.70766 9.4686 5.78142C9.50438 5.85708 9.56511 5.9184 9.65404 5.9729C9.82485 6.07758 10.1274 6.17282 10.6508 6.29778C11.0937 6.40366 11.664 6.54109 12.125 6.85336C12.5786 7.1607 12.9278 7.63853 12.9279 8.44111C12.9279 9.39465 12.2295 10.2144 11.2505 10.499L11.1784 10.5199V10.595V10.7059C11.1784 11.111 10.8697 11.4294 10.5007 11.4294C10.1314 11.4294 9.82277 11.111 9.82277 10.7059V10.5972V10.5218M11.2506 3.49866L9.82277 10.5218M9.82277 10.5218L9.75028 10.5011M9.82277 10.5218L9.75028 10.5011M9.75028 10.5011C9.01824 10.2916 8.43229 9.7831 8.19025 9.11323L9.75028 10.5011ZM1.55563 1.54691H1.45563V1.64691V4.00907V4.14015L1.58205 4.10552C2.70961 3.79663 3.5935 2.85847 3.88368 1.67064L3.9139 1.54691H3.78653H1.55563ZM1.45563 12.3531V12.4531H1.55563H3.78653H3.9139L3.88368 12.3294C3.5935 11.1415 2.70961 10.2034 1.58207 9.89424L1.45563 9.85957V9.99068V12.3531ZM19.4444 12.4531H19.5444V12.3531V9.99068V9.85958L19.4179 9.89424C18.2901 10.2034 17.4065 11.1418 17.1161 12.3293L17.0858 12.4531H17.2132H19.4444ZM19.462 8.40811L19.5444 8.39338V8.30967V5.69008V5.60637L19.462 5.59164C17.5569 5.25107 16.0477 3.65673 15.7246 1.63116L15.7112 1.54691H15.6259H5.37413H5.28882L5.27538 1.63117C4.95235 3.65698 3.44283 5.25132 1.5378 5.59189L1.4554 5.60662V5.69033V8.30967V8.39338L1.5378 8.40811C3.44283 8.74868 4.95235 10.343 5.27538 12.3688L5.28882 12.4531H5.37413H15.6259H15.7112L15.7246 12.3688C16.0477 10.343 17.5569 8.74868 19.462 8.40811ZM19.4179 4.10576L19.5444 4.14042V4.00932V1.64716V1.54716H19.4444H17.2132H17.0858L17.1161 1.67092C17.4065 2.85847 18.2902 3.79662 19.4179 4.10576ZM0.7777 0.1H20.2223C20.5913 0.1 20.9 0.418381 20.9 0.823457V13.1765C20.9 13.5816 20.5913 13.9 20.2221 13.9H0.7777C0.408886 13.9 0.1 13.5816 0.1 13.1765V0.823457C0.1 0.418401 0.408886 0.1 0.7777 0.1Z" fill="black" stroke="#EFEFEF" stroke-width="0.2"/>
</svg>
