<svg width="21" height="21" viewBox="0 0 21 21" fill="none" xmlns="http://www.w3.org/2000/svg">
<path d="M10.5 0C4.70846 0 0 4.70846 0 10.5C0 16.2915 4.70846 21 10.5 21C16.2915 21 21 16.2915 21 10.5C21 4.70846 16.2915 0 10.5 0ZM18.8256 14.7124H15.3325C15.5722 13.5963 15.7169 12.3726 15.75 11.0829H19.8177C19.7309 12.3809 19.3837 13.6087 18.8256 14.7124ZM1.18642 11.0829H5.25C5.28307 12.3726 5.42776 13.5963 5.66752 14.7124H2.17441C1.61634 13.6087 1.26909 12.3809 1.18642 11.0829ZM2.17441 6.2876H5.67165C5.43189 7.40374 5.2872 8.62736 5.25413 9.91713H1.18642C1.26909 8.61909 1.61634 7.39134 2.17441 6.2876ZM11.0829 5.12185V1.27736C12.1329 1.65768 13.1581 3.03425 13.8278 5.12185H11.0829ZM14.1461 6.2876C14.3941 7.36654 14.5512 8.58602 14.5843 9.91713H11.0829V6.2876H14.1461ZM9.91713 1.27323V5.11772H7.17224C7.84193 3.03012 8.86713 1.65354 9.91713 1.27323ZM9.91713 6.2876V9.91713H6.41575C6.45295 8.58602 6.61004 7.36654 6.85394 6.2876H9.91713ZM6.41575 11.0829H9.91713V14.7124H6.85394C6.61004 13.6376 6.45295 12.4181 6.41575 11.0829ZM9.91713 15.8781V19.7226C8.86713 19.3423 7.84193 17.9657 7.17224 15.8781H9.91713ZM11.0829 19.7268V15.8823H13.8278C13.1581 17.9699 12.1329 19.3465 11.0829 19.7268ZM11.0829 14.7124V11.0829H14.5843C14.547 12.414 14.39 13.6335 14.1461 14.7124H11.0829ZM15.75 9.91713C15.7169 8.62736 15.5722 7.40374 15.3325 6.2876H18.8256C19.3878 7.39134 19.735 8.61909 19.8136 9.91713H15.75ZM18.1187 5.12185H15.0348C14.6173 3.69567 14.0344 2.48858 13.3317 1.60807C15.287 2.23228 16.9571 3.48071 18.1187 5.12185ZM7.67657 1.60394C6.97382 2.48445 6.38268 3.6874 5.96102 5.12185H2.8813C4.04291 3.47657 5.72126 2.22402 7.67657 1.60394ZM2.8813 15.8781H5.96516C6.38681 17.3126 6.97382 18.5156 7.68071 19.3961C5.72126 18.7719 4.04291 17.5234 2.8813 15.8781ZM13.3276 19.3961C14.0303 18.5156 14.6132 17.3126 15.0348 15.8823H18.1187C16.9571 17.5193 15.2829 18.7719 13.3276 19.3961Z" fill="black"/>
</svg>
