<svg width="17" height="24" viewBox="0 0 17 24" fill="none" xmlns="http://www.w3.org/2000/svg">
<path d="M7.57895 8.63704C9.94737 8.63704 11.8421 6.68148 11.8421 4.23704C11.6842 1.95556 9.78947 0 7.57895 0C5.21053 0 3.31579 1.95556 3.31579 4.4C3.31579 6.68148 5.21053 8.63704 7.57895 8.63704ZM7.57895 0.977778C9.31579 0.977778 10.8947 2.44444 10.8947 4.4C10.8947 6.19259 9.47368 7.82222 7.57895 7.82222C5.68421 7.82222 4.26316 6.19259 4.26316 4.4C4.26316 2.44444 5.68421 0.977778 7.57895 0.977778ZM9.63158 9.77778H5.36842C2.36842 9.77778 0 12.2222 0 15.3185V22H3.47368H3.78947H11.0526H11.8421H15V15.3185C15 12.2222 12.6316 9.77778 9.63158 9.77778ZM14.0526 21.1852H12V14.9926H11.0526V21.1852H3.78947V14.9926H2.84211V21.1852H0.947368V15.3185C0.947368 12.7111 3 10.7556 5.36842 10.7556H9.63158C12.1579 10.7556 14.0526 12.8741 14.0526 15.3185V21.1852Z" transform="translate(1 1)" fill="black" stroke="black" stroke-width="0.7"/>
</svg>
